<svg id="Capa_1" data-name="Capa 1" xmlns="http://www.w3.org/2000/svg" viewBox="0 0 33 33"><title>Dewlers iconos</title><path d="M27.47,30l-6.3-6.3,3-3a1.93,1.93,0,0,0,.28-.36l.12-.17A10.83,10.83,0,0,0,19.39,2.61V.71h-6v1.9A10.86,10.86,0,0,0,9.49,21.42L8.88,22l-.1.12-.12.1a1.55,1.55,0,0,0-.46,1.1,1.59,1.59,0,0,0,.46,1.11l4.72,4.71a1.52,1.52,0,0,0,1.1.46,1.61,1.61,0,0,0,1-.36,1.93,1.93,0,0,0,.36-.28l3-3,6.3,6.3Zm-13.6-1.65L9.56,24a.91.91,0,0,1-.26-.65.92.92,0,0,1,.17-.51.69.69,0,0,1,.3-.09.61.61,0,0,1,.43.18l4.71,4.71a.6.6,0,0,1,0,.81A.92.92,0,0,1,13.87,28.31ZM15.59,27l-4.71-4.71a1.34,1.34,0,0,0-.52-.34l6.71-6.71h0a1.57,1.57,0,0,0,.34.51l4.71,4.71a1.78,1.78,0,0,0,.56.36L16,27.52A1.54,1.54,0,0,0,15.59,27Zm7.9-8.27a.9.9,0,0,1,.17,1v0a0,0,0,0,0,0,0,.6.6,0,0,1-.82,0L18.11,15a.6.6,0,0,1-.18-.43A.58.58,0,0,1,18,14.3a.89.89,0,0,1,.51-.19.91.91,0,0,1,.65.27l2.15,2.15ZM14.32,2.18V1.67h4.1v.51Zm-4.21,18.5A9.9,9.9,0,1,1,24.6,18.52a1.31,1.31,0,0,0-.25-.32L24.17,18h0L22,15.85l-.63-.63h.74a.49.49,0,0,0,.48-.48.48.48,0,0,0-.48-.48h-1.7l-.78-.78a1.56,1.56,0,0,0-2.21,0,.64.64,0,0,0-.1.13l-.12.09-.56.56H16v-7a.49.49,0,0,0-1,0v8h.65l-5.53,5.53Zm10.45,3.73L26.11,30l-1,1-5.55-5.55Z" fill="#00d9aa"/></svg>