<svg id="Capa_1" data-name="Capa 1" xmlns="http://www.w3.org/2000/svg" viewBox="0 0 33 33"><title>Dewlers iconos</title><polygon points="14.76 7.75 14.76 15.28 21.61 15.28 21.61 14.37 15.67 14.37 15.67 7.75 14.76 7.75" fill="#00d9aa"/><path d="M33,29.25l-6-6,2.84-2.84a.94.94,0,0,0,.09-.12l.12-.09a1.5,1.5,0,0,0,0-2.1l-.21-.21-3.64-3.64c0-.36.06-.72.06-1.08a10.27,10.27,0,0,0-7.42-9.86V1.54H13.16V3.35a10.29,10.29,0,0,0-7.42,9.86,10.56,10.56,0,0,0,.18,1.86,4.23,4.23,0,0,0-.84,6.38A8.2,8.2,0,0,0,0,29.06v.46H16.47v-.46a8.21,8.21,0,0,0-5.07-7.61,4.18,4.18,0,0,0,1.08-2.83,4.25,4.25,0,0,0-4.24-4.25,4.12,4.12,0,0,0-1.46.28,8.75,8.75,0,0,1-.12-1.44,9.36,9.36,0,0,1,18.72,0c0,.09,0,.17,0,.26a1.49,1.49,0,0,0-1.88.18,1.56,1.56,0,0,1-.21.21L15.4,21.74a1,1,0,0,0-.1.11,1.09,1.09,0,0,0-.11.1,1.47,1.47,0,0,0,0,2.09l.21.21,4.07,4.08h0l.2.21a1.48,1.48,0,0,0,1.05.43,1.47,1.47,0,0,0,1.05-.43.94.94,0,0,0,.09-.12l.12-.09,2.84-2.84,6,6ZM11.57,18.62a3.27,3.27,0,0,1-1.31,2.64l-.69.54.84.26a7.28,7.28,0,0,1,5.14,6.55H.92a7.31,7.31,0,0,1,5.15-6.55l.84-.26-.7-.54A3.3,3.3,0,0,1,4.9,18.62a3.34,3.34,0,1,1,6.67,0Zm2.5-15.69V2.45H18v.48ZM29.31,19.68a.56.56,0,0,1-.68-.09l-4.5-4.49a.56.56,0,0,1-.08-.68.81.81,0,0,1,.49-.17.85.85,0,0,1,.61.25l4.08,4.08A.86.86,0,0,1,29.31,19.68Zm-8.09,8.09a.88.88,0,0,1-1.1-.08L16,23.61A.86.86,0,0,1,16,22.5a.65.65,0,0,1,.28-.08.56.56,0,0,1,.4.17l4.5,4.49A.59.59,0,0,1,21.22,27.77Zm.88-.84a1.43,1.43,0,0,0-.32-.49L17.29,22a1.34,1.34,0,0,0-.5-.32l6.37-6.37a1.42,1.42,0,0,0,.33.48L28,20.24a1.54,1.54,0,0,0,.49.32l-2.08,2.08,0,0-2.21,2.2,0,0Zm4.29-3,5.32,5.32-.92.92-5.32-5.32Z" fill="#00d9aa"/></svg>