<svg id="Capa_1" data-name="Capa 1" xmlns="http://www.w3.org/2000/svg" viewBox="0 0 33 33"><title>Dewlers iconos</title><path d="M23,12.8a5.35,5.35,0,0,1,1-.07,4.13,4.13,0,0,1,1.24.17l.06.09-2.81,3.86L25.59,21a2.92,2.92,0,0,1-1.42.44,2.32,2.32,0,0,1-1-.17,2.15,2.15,0,0,1-.69-.62l-1.55-2.09-2,2.76a5.64,5.64,0,0,1-1,.07,4.73,4.73,0,0,1-1.26-.17l-.05-.1,3.07-4.2-2.84-3.83a3,3,0,0,1,1.42-.43,2.15,2.15,0,0,1,1,.17,2.05,2.05,0,0,1,.66.61l1.32,1.78Z" fill="#00d9aa"/><path d="M33,19.67a2.06,2.06,0,0,1-.31,1.27,1.39,1.39,0,0,1-1.17.41H27.07a3.34,3.34,0,0,1-.55-.57,1.1,1.1,0,0,1-.26-.63,1.57,1.57,0,0,1,.43-1A7.36,7.36,0,0,1,28,17.93l1.61-1.22a1.62,1.62,0,0,0,.79-1.18.85.85,0,0,0-.28-.64,1.08,1.08,0,0,0-.77-.25,1.13,1.13,0,0,0-.82.32,1.76,1.76,0,0,0-.49.78,2.56,2.56,0,0,1-.47,0,2.77,2.77,0,0,1-.48-.11,2.2,2.2,0,0,1-.41-.18.72.72,0,0,1-.29-.25,2.65,2.65,0,0,1,.44-.85,3.29,3.29,0,0,1,.72-.67,3.51,3.51,0,0,1,1-.43,4.22,4.22,0,0,1,1.21-.16,3.87,3.87,0,0,1,1.2.18,2.83,2.83,0,0,1,1,.52,2.21,2.21,0,0,1,.64.79,2.27,2.27,0,0,1,.24,1,2.16,2.16,0,0,1-.47,1.31A6.21,6.21,0,0,1,31,18.06l-1.08.75a5.69,5.69,0,0,0-1.21,1l1.2-.1c.37,0,.73,0,1.07,0Z" fill="#00d9aa"/><path d="M16.8,14.35l-3-3a3.74,3.74,0,0,0-5.29,0L7.12,12.7a4.12,4.12,0,0,0-5.33.42.63.63,0,0,0-.18.45v4.91a.63.63,0,0,0,.18.45l.38.37-2,2a.63.63,0,0,0,0,.9l4.39,4.4a.63.63,0,0,0,.9,0l2-2a3.75,3.75,0,0,0,4.8-.41l4.5-4.51A3.74,3.74,0,0,0,16.8,14.35ZM5,25.23l-3.49-3.5L3.07,20.2l3.49,3.5Zm6.37-2a2.47,2.47,0,0,1-3.49,0l-4.39-4.4-.64-.63V13.85a2.85,2.85,0,0,1,3.32-.23l-1.95,2a.65.65,0,0,0,0,.91.65.65,0,0,0,.9,0l4.24-4.25a2.47,2.47,0,0,1,3.49,0l3,3a2.47,2.47,0,0,1,0,3.49l-4.5,4.51Z" fill="#00d9aa"/></svg>