<svg id="Capa_1" data-name="Capa 1" xmlns="http://www.w3.org/2000/svg" viewBox="0 0 33 33"><title>Dewlers iconos</title><polygon points="18.91 9.65 13.16 18.82 10.61 18.82 8.53 9.65 11.18 9.65 12.49 15.61 16.24 9.65 18.91 9.65" fill="#fff"/><path d="M15.92,23.82a5.71,5.71,0,0,1-1.66-.71l1-1.94a5.84,5.84,0,0,0,1.48.68,5.74,5.74,0,0,0,1.57.23,2.57,2.57,0,0,0,1.16-.22.64.64,0,0,0,.41-.6.57.57,0,0,0-.37-.51,6.92,6.92,0,0,0-1.16-.39,13.67,13.67,0,0,1-1.48-.48,2.53,2.53,0,0,1-1-.74,1.9,1.9,0,0,1-.43-1.31A2.86,2.86,0,0,1,16,16.11,3.47,3.47,0,0,1,17.52,15a6.14,6.14,0,0,1,2.33-.41,7.59,7.59,0,0,1,1.83.21,4.66,4.66,0,0,1,1.47.58l-.94,1.92A4.39,4.39,0,0,0,21,16.75a5.33,5.33,0,0,0-1.33-.17,2.45,2.45,0,0,0-1.21.25.73.73,0,0,0-.44.64.57.57,0,0,0,.38.52,7.65,7.65,0,0,0,1.18.39,11.92,11.92,0,0,1,1.47.46,2.68,2.68,0,0,1,1,.72,1.94,1.94,0,0,1,.41,1.27A2.81,2.81,0,0,1,22,22.54a3.52,3.52,0,0,1-1.54,1.15,6.22,6.22,0,0,1-2.33.4A8.41,8.41,0,0,1,15.92,23.82Z" fill="#fff"/><path d="M.14,29.69l0,0a.2.2,0,0,1,0-.28L9,19a.2.2,0,0,1,.28,0,.2.2,0,0,1,0,.28L.38,29.64A.2.2,0,0,1,.14,29.69Z" fill="#fff"/><path d="M23.81,14.06l0,0a.2.2,0,0,1,0-.28l8.87-10.4a.2.2,0,0,1,.3.26L24.05,14A.2.2,0,0,1,23.81,14.06Z" fill="#fff"/></svg>