<svg id="Capa_1" data-name="Capa 1" xmlns="http://www.w3.org/2000/svg" viewBox="0 0 33 33"><title>Dewlers iconos</title><polygon points="21.97 14.81 16.16 14.81 16.16 8.35 15.27 8.35 15.27 15.7 21.97 15.7 21.97 14.81" fill="#00d9aa"/><path d="M20,23.07a10,10,0,0,0-.76-19V2.28H13.71V4.05a10,10,0,0,0-.75,19,8,8,0,0,0-4.51,7.2v.45h16.1v-.45A8,8,0,0,0,20,23.07ZM14.6,3.64V3.17h3.79v.47Zm-7.25,10a9.15,9.15,0,1,1,12.76,8.41,4,4,0,0,0,.54-2,4.15,4.15,0,1,0-7.76,2A9.11,9.11,0,0,1,7.35,13.68Zm2,16.15a7.12,7.12,0,0,1,5-6.4l.82-.25-.68-.52a3.26,3.26,0,1,1,4,0l-.68.52.82.25a7.12,7.12,0,0,1,5,6.4Z" fill="#00d9aa"/></svg>